<?xml version="1.0" encoding="UTF-8" standalone="no"?>
<svg
   xmlns:dc="http://purl.org/dc/elements/1.1/"
   xmlns:cc="http://creativecommons.org/ns#"
   xmlns:rdf="http://www.w3.org/1999/02/22-rdf-syntax-ns#"
   xmlns:svg="http://www.w3.org/2000/svg"
   xmlns="http://www.w3.org/2000/svg"
   xmlns:sodipodi="http://sodipodi.sourceforge.net/DTD/sodipodi-0.dtd"
   xmlns:inkscape="http://www.inkscape.org/namespaces/inkscape"
   width="64"
   height="64"
   version="1"
   id="svg883"
   sodipodi:docname="mumble_neutral_monochrome.svg"
   inkscape:version="1.0.2 (e86c870879, 2021-01-15)">
  <metadata
     id="metadata889">
    <rdf:RDF>
      <cc:Work
         rdf:about="">
        <dc:format>image/svg+xml</dc:format>
        <dc:type
           rdf:resource="http://purl.org/dc/dcmitype/StillImage" />
        <dc:title></dc:title>
      </cc:Work>
    </rdf:RDF>
  </metadata>
  <defs
     id="defs887" />
  <sodipodi:namedview
     pagecolor="#ffffff"
     bordercolor="#666666"
     borderopacity="1"
     objecttolerance="10"
     gridtolerance="10"
     guidetolerance="10"
     inkscape:pageopacity="0"
     inkscape:pageshadow="2"
     inkscape:window-width="1920"
     inkscape:window-height="1011"
     id="namedview885"
     showgrid="false"
     inkscape:zoom="11.671875"
     inkscape:cx="32"
     inkscape:cy="32"
     inkscape:window-x="0"
     inkscape:window-y="0"
     inkscape:window-maximized="1"
     inkscape:current-layer="g897" />
  <g
     id="g897"
     transform="matrix(1.0862069,0,0,1.0677952,-2.7586207,-2.7033051)"
     style="opacity:1;stroke-width:1.00018909;stroke-miterlimit:4;stroke-dasharray:none">
    <path
       style="opacity:0.2;stroke-width:1.00018909;stroke-miterlimit:4;stroke-dasharray:none"
       d="m 26.000007,4.0000725 c 0,0 -3.626247,-0.0414 -7.341784,1.8164077 -3.715542,1.8577629 -7.658197,6.1835768 -7.658197,13.1835738 v 20.999974 h 5.999096 V 19.000054 c 0,-4.999989 2.057338,-6.674167 4.341789,-7.8164 0.594706,-0.297345 1.095747,-0.363465 1.6591,-0.530265 v 10.346662 c 0,4.000001 2.442657,6.825818 4.6582,7.933578 C 29.873751,30.041412 32,30.00004 32,30.00004 c 0,0 2.126249,0.0414 4.341789,-1.066411 2.215543,-1.10776 4.6582,-3.933577 4.6582,-7.933578 V 10.653389 c 0.563353,0.1668 1.063498,0.23292 1.658204,0.530265 2.284451,1.142233 4.341788,2.816411 4.341788,7.8164 v 20.999974 h 5.999993 V 19.000054 c 0,-6.999997 -3.942655,-11.3258109 -7.658197,-13.1835738 C 41.62624,3.9587026 37.999993,4.0000725 37.999993,4.0000725 H 34.999996 V 21.000051 c 0,1.999992 -0.557339,2.174172 -1.341792,2.566405 C 32.873747,23.958676 32,24.000047 32,24.000047 c 0,0 -0.873751,-0.0414 -1.658204,-0.433591 -0.784453,-0.392233 -1.341792,-0.566413 -1.341792,-2.566405 V 4.0000725 Z"
       id="path871" />
    <path
       style="opacity:0.2;stroke-width:1.00018909;stroke-miterlimit:4;stroke-dasharray:none"
       d="M 17.000019,32.043005 C 9.1843697,32.573453 3.0000363,39.049803 3.0000363,47.000019 c 0,7.950216 6.1843334,14.426566 13.9999827,14.957013 z m 29.999962,0 v 27.956998 h -7.015615 c 0.629603,-0.836327 1.015623,-1.867902 1.015623,-2.999997 v -1.999997 c 0,-2.769997 -2.229997,-4.999994 -4.999994,-4.999994 h -7.99999 c -2.769997,0 -4.999994,2.229997 -4.999994,4.999994 v 1.999997 C 23.000011,59.770003 25.230008,62 28.000005,62 h 4.999994 2.999996 10.999986 v -0.04296 c 7.815648,-0.530455 13.999983,-7.006805 13.999983,-14.957021 0,-7.950216 -6.184335,-14.426566 -13.999983,-14.957014 z"
       id="path873" />
    <path
       style="fill:#d1d1d1;stroke-width:1.00018909;stroke-miterlimit:4;stroke-dasharray:none;fill-opacity:1"
       d="m 26.000007,3.000075 c 0,0 -3.626247,-0.0414 -7.341784,1.8164077 C 14.942681,6.6742456 11.000026,11.00006 11.000026,18.000056 V 39.00003 h 5.999096 V 18.000056 c 0,-4.999989 2.057338,-6.674167 4.341789,-7.8164 0.594706,-0.2973448 1.095747,-0.3634647 1.6591,-0.5302645 V 20.000054 c 0,4.000001 2.442657,6.825817 4.6582,7.933578 C 29.873751,29.041414 32,29.000043 32,29.000043 c 0,0 2.126249,0.0414 4.341789,-1.066411 2.215543,-1.107761 4.6582,-3.933577 4.6582,-7.933578 V 9.6533915 c 0.563353,0.1667998 1.063498,0.2329197 1.658204,0.5302645 2.284451,1.142233 4.341788,2.816411 4.341788,7.8164 V 39.00003 h 5.999993 V 18.000056 c 0,-6.999996 -3.942655,-11.3258104 -7.658197,-13.1835733 C 41.62624,2.9587051 37.999993,3.000075 37.999993,3.000075 h -2.999997 v 16.999979 c 0,1.999991 -0.557339,2.174171 -1.341792,2.566405 C 32.873747,22.958678 32,23.00005 32,23.00005 c 0,0 -0.873751,-0.0414 -1.658204,-0.433591 -0.784453,-0.392234 -1.341792,-0.566414 -1.341792,-2.566405 V 3.000075 Z"
       id="path875" />
    <path
       style="fill:#ffffff;stroke-width:1.00018909;stroke-miterlimit:4;stroke-dasharray:none;fill-opacity:1"
       d="M 17.000019,31.043008 C 9.1843697,31.573455 3.0000363,38.049805 3.0000363,46.000021 c 0,7.950216 6.1843334,14.426566 13.9999827,14.957014 z m 29.999962,0 v 27.956997 h -7.015615 c 0.629603,-0.836327 1.015623,-1.867902 1.015623,-2.999996 v -1.999998 c 0,-2.769996 -2.229997,-4.999993 -4.999994,-4.999993 h -7.99999 c -2.769997,0 -4.999994,2.229997 -4.999994,4.999993 v 1.999998 c 0,2.769996 2.229997,4.999994 4.999994,4.999994 h 4.999994 2.999996 10.999986 v -0.04296 c 7.815648,-0.530456 13.999983,-7.006806 13.999983,-14.957022 0,-7.950216 -6.184335,-14.426566 -13.999983,-14.957013 z"
       id="path877" />
    <path
       style="opacity:0.1;fill:#ffffff;stroke-width:1.00018909;stroke-miterlimit:4;stroke-dasharray:none"
       d="M 26,3 C 26,3 22.375693,2.9585983 18.660156,4.8164062 14.944615,6.6741691 11,11.000004 11,18 v 1 C 11,12.000004 14.944615,7.6741691 18.660156,5.8164062 22.375693,3.9585983 26,4 26,4 h 3 V 3 Z m 9,0 v 1 h 3 C 38,4 41.624307,3.958629 45.339844,5.8164062 49.055386,7.6741692 53,12.000004 53,19 V 18 C 53,11.000004 49.055386,6.6741691 45.339844,4.8164062 41.624307,2.9586287 38,3 38,3 Z m -6,17 v 1 c 0,1.999991 0.555391,2.174172 1.339844,2.566406 C 31.124297,23.958599 32,24 32,24 32,24 32.875699,23.95863 33.660156,23.566406 34.444609,23.174172 35,22.999991 35,21 v -1 c 0,1.999991 -0.555391,2.174172 -1.339844,2.566406 C 32.875699,22.958625 32,23 32,23 32,23 31.124297,22.958599 30.339844,22.566406 29.555391,22.174172 29,21.999991 29,20 Z"
       id="path879" />
    <path
       style="opacity:0.2;fill:#ffffff;stroke-width:1.00018909;stroke-miterlimit:4;stroke-dasharray:none"
       d="M 17,31.042969 C 9.1843507,31.573416 3,38.049784 3,46 3,46.168719 3.019864,46.332651 3.025391,46.5 3.2803002,38.781703 9.3502139,32.562159 17,32.042969 Z m 30,0 v 1 C 54.649785,32.562159 60.7197,38.781703 60.974609,46.5 60.980136,46.332651 61,46.168719 61,46 61,38.049784 54.815648,31.573416 47,31.042969 Z M 28,49 c -2.769997,0 -5,2.230004 -5,5 v 1 c 0,-2.769996 2.230003,-5 5,-5 h 8 c 2.769997,0 5,2.230004 5,5 v -1 c 0,-2.769996 -2.230003,-5 -5,-5 z m 12.556641,10 c -0.158235,0.353974 -0.341707,0.69374 -0.572266,1 H 47 v -1 z"
       id="path881" />
  </g>
</svg>
